 <svg version="1.0" xmlns="http://www.w3.org/2000/svg" width="700.000000pt" height="700.000000pt" viewBox="0 0 700.000000 700.000000" preserveAspectRatio="xMidYMid meet">
<metadata>
Created by potrace 1.12, written by Peter Selinger 2001-2015
</metadata>
<g transform="translate(0.000000,700.000000) scale(0.100000,-0.100000)" fill="#000000" stroke="none">
<path d="M1465 6919 c-271 -21 -526 -111 -765 -270 -132 -87 -335 -291 -423
-425 -125 -188 -210 -402 -247 -621 -19 -112 -20 -175 -20 -2158 0 -1391 3
-2069 11 -2122 23 -175 81 -351 169 -521 152 -292 393 -530 691 -680 118 -60
314 -131 326 -118 13 13 -23 35 -102 61 -500 165 -884 580 -1016 1097 -49 196
-49 156 -49 2273 0 1328 3 2008 11 2065 46 378 187 668 449 931 229 230 484
367 803 431 l112 23 2075 0 c1983 0 2079 -1 2175 -19 447 -83 833 -352 1068
-743 110 -182 185 -417 207 -649 14 -150 14 -3918 0 -4068 -36 -378 -184 -695
-449 -962 -55 -56 -142 -131 -193 -168 -108 -77 -297 -173 -415 -211 -77 -25
-114 -48 -100 -62 10 -9 193 54 294 102 443 210 760 613 875 1113 l22 97 3
2070 c4 2300 7 2182 -63 2412 -125 413 -426 770 -809 958 -209 102 -366 146
-592 165 -141 12 -3898 11 -4048 -1z"></path>
<path d="M1150 6690 c0 -5 11 -10 25 -10 14 0 25 5 25 10 0 6 -11 10 -25 10
-14 0 -25 -4 -25 -10z"></path>
<path d="M1340 6690 c0 -7 725 -10 2155 -10 1430 0 2155 3 2155 10 0 7 -725
10 -2155 10 -1430 0 -2155 -3 -2155 -10z"></path>
<path d="M5780 6690 c0 -5 14 -10 30 -10 17 0 30 5 30 10 0 6 -13 10 -30 10
-16 0 -30 -4 -30 -10z"></path>
<path d="M1070 6680 c0 -5 7 -10 15 -10 8 0 15 5 15 10 0 6 -7 10 -15 10 -8 0
-15 -4 -15 -10z"></path>
<path d="M5890 6680 c0 -5 5 -10 10 -10 6 0 10 5 10 10 0 6 -4 10 -10 10 -5 0
-10 -4 -10 -10z"></path>
<path d="M1020 6670 c0 -5 5 -10 10 -10 6 0 10 5 10 10 0 6 -4 10 -10 10 -5 0
-10 -4 -10 -10z"></path>
<path d="M5950 6670 c0 -5 5 -10 10 -10 6 0 10 5 10 10 0 6 -4 10 -10 10 -5 0
-10 -4 -10 -10z"></path>
<path d="M968 6663 c-10 -2 -18 -9 -18 -15 0 -5 7 -7 16 -4 9 3 20 6 25 6 5 0
9 5 9 10 0 10 -3 11 -32 3z"></path>
<path d="M6215 6570 c3 -5 21 -17 39 -25 18 -9 63 -41 99 -71 71 -58 96 -70
56 -28 -39 42 -211 152 -194 124z"></path>
<path d="M734 6554 c-18 -14 -18 -15 4 -4 12 6 22 13 22 15 0 8 -5 6 -26 -11z"></path>
<path d="M645 6497 c-56 -41 -94 -77 -82 -77 3 0 26 17 50 38 24 20 57 47 73
59 16 12 27 22 24 22 -4 1 -33 -19 -65 -42z"></path>
<path d="M560 6354 c0 -6 16 -25 35 -44 19 -19 35 -29 35 -24 0 6 -16 25 -35
44 -19 19 -35 29 -35 24z"></path>
<path d="M6390 6325 c-18 -19 -31 -37 -29 -40 3 -2 21 11 39 30 18 19 31 37
29 40 -3 2 -21 -11 -39 -30z"></path>
<path d="M2360 6249 c-211 -24 -393 -78 -585 -174 -462 -231 -798 -658 -909
-1156 -194 -869 299 -1731 1149 -2012 465 -154 1008 -87 1430 176 269 167 490
410 629 692 141 287 195 557 175 883 -9 155 -28 258 -76 406 -169 526 -564
924 -1101 1107 -221 76 -481 104 -712 78z m-82 -375 l162 -119 0 -251 0 -250
-32 -24 c-18 -14 -141 -103 -272 -199 l-239 -174 -91 29 c-50 16 -158 52 -240
79 l-150 50 -63 190 c-34 105 -62 196 -63 204 0 34 183 233 307 332 150 119
433 264 499 255 11 -1 93 -56 182 -122z m788 100 c206 -77 387 -195 549 -358
66 -67 133 -139 147 -161 l27 -40 -67 -204 -67 -205 -55 -18 c-160 -55 -404
-129 -416 -126 -8 2 -136 91 -284 198 l-270 195 0 250 0 250 172 123 c94 67
176 122 183 122 7 0 44 -12 81 -26z m-1462 -1220 c127 -41 236 -80 243 -87 10
-10 181 -527 198 -597 5 -21 -20 -60 -145 -233 l-151 -207 -219 0 -218 0 -50
78 c-152 237 -228 472 -248 763 l-7 106 174 126 c95 70 177 127 182 127 5 0
114 -34 241 -76z m2294 -60 l172 -125 0 -53 c0 -65 -16 -198 -36 -296 -35
-166 -140 -412 -235 -543 l-40 -57 -219 0 -218 0 -148 203 c-81 111 -147 210
-147 219 1 9 31 106 67 215 36 109 80 245 98 303 l34 105 229 77 c127 42 239
77 250 77 11 0 98 -56 193 -125z m-890 -964 c84 -116 152 -217 152 -225 0 -13
-98 -327 -121 -387 -6 -14 -18 -28 -27 -31 -316 -91 -576 -98 -852 -25 -129
34 -117 17 -192 247 -37 113 -64 210 -60 216 4 7 72 103 152 213 l145 201 326
1 325 0 152 -210z"></path>
<path d="M700 6215 c0 -13 468 -481 474 -474 3 3 -103 113 -234 244 -132 132
-240 235 -240 230z"></path>
<path d="M6135 6070 c-77 -77 -135 -140 -130 -140 13 0 281 268 274 274 -3 3
-68 -58 -144 -134z"></path>
<path d="M5840 5775 c-52 -52 -90 -95 -85 -95 13 0 191 178 184 184 -3 3 -47
-37 -99 -89z"></path>
<path d="M5500 5435 c-8 -9 -8 -15 -2 -15 12 0 26 19 19 26 -2 2 -10 -2 -17
-11z"></path>
<path d="M5450 5385 c-8 -9 -8 -15 -2 -15 12 0 26 19 19 26 -2 2 -10 -2 -17
-11z"></path>
<path d="M5675 3426 c-45 -20 -63 -46 -95 -131 -41 -110 -85 -177 -166 -255
-166 -157 -370 -233 -629 -233 -136 1 -239 17 -375 61 -216 68 -331 47 -437
-80 -51 -61 -52 -63 -37 -88 9 -14 54 -61 100 -105 88 -84 103 -115 68 -149
-35 -35 -71 -21 -159 64 -77 74 -87 80 -125 80 -56 0 -100 -42 -100 -94 0 -30
12 -49 70 -117 75 -87 84 -115 49 -150 -30 -30 -64 -18 -113 39 -91 105 -122
132 -155 132 -39 0 -87 -23 -101 -49 -21 -40 -11 -77 38 -142 67 -89 74 -103
62 -133 -10 -28 -51 -43 -80 -30 -11 5 -45 43 -76 84 -62 83 -84 99 -132 100
-40 0 -92 -46 -92 -82 0 -13 23 -59 50 -103 49 -78 56 -98 44 -130 -8 -20 -45
-35 -71 -29 -11 3 -37 33 -59 67 -83 131 -121 154 -193 118 -75 -39 -78 -74
-16 -182 25 -43 45 -85 45 -94 0 -45 -50 -76 -89 -56 -10 6 -39 46 -64 90 -73
125 -95 133 -229 75 -45 -20 -193 -80 -328 -133 -135 -54 -293 -121 -350 -149
-198 -96 -280 -189 -280 -316 1 -75 16 -145 37 -169 13 -13 14 -20 5 -29 -37
-37 9 -110 82 -129 58 -15 84 -43 92 -98 10 -66 29 -98 67 -110 70 -23 121 24
115 106 -4 67 11 73 171 67 157 -7 177 -13 185 -63 18 -116 176 -108 176 9 0
33 4 42 23 50 30 12 551 54 581 46 16 -4 25 -15 30 -38 10 -49 42 -78 88 -78
56 0 88 34 88 94 0 56 8 61 123 77 99 15 107 11 126 -51 32 -108 171 -79 171
36 0 37 4 45 28 58 15 7 47 17 72 21 68 10 290 50 645 115 388 72 910 160 947
160 21 0 28 -6 33 -30 10 -45 42 -70 87 -70 54 0 88 35 88 89 0 44 10 50 120
71 75 14 110 6 110 -27 0 -36 51 -83 90 -83 50 0 90 47 90 104 0 50 -7 46 117
76 76 19 91 52 75 163 -8 51 -17 77 -31 88 -18 15 -19 18 -5 30 37 31 62 116
88 307 29 204 14 559 -24 582 -21 13 -34 2 -170 -132 -208 -205 -388 -333
-770 -548 -91 -51 -212 -125 -269 -164 -128 -86 -272 -221 -301 -282 -14 -27
-30 -46 -43 -49 -126 -28 -561 -115 -563 -112 -7 6 135 164 187 208 134 113
303 216 444 270 412 159 893 428 1186 663 98 79 250 229 247 244 -1 4 2 24 6
45 10 44 -12 87 -41 82 -10 -2 -21 -4 -26 -4 -4 -1 -44 -36 -90 -78 -255 -239
-604 -447 -1119 -667 -589 -252 -798 -364 -1005 -537 -112 -95 -226 -237 -246
-310 -4 -11 -55 -24 -208 -52 -112 -20 -234 -38 -271 -41 l-67 -5 32 47 c135
204 306 373 516 511 200 131 321 187 661 306 688 242 1144 455 1455 682 126
93 264 212 280 243 35 68 -27 154 -240 329 -124 102 -187 126 -250 97z m-804
-790 c35 32 61 15 107 -73 41 -80 42 -82 22 -93 -28 -15 -36 -8 -70 61 -17 32
-34 59 -38 59 -22 0 -19 -18 13 -79 30 -56 33 -68 21 -80 -24 -23 -39 -7 -94
97 l-53 100 23 17 c22 15 24 14 37 -5 13 -19 15 -19 32 -4z m-96 -106 c-17
-19 -17 -21 0 -60 16 -36 22 -40 49 -38 25 2 32 -1 34 -18 4 -27 -62 -58 -89
-41 -23 14 -81 135 -74 156 3 10 20 25 38 33 27 14 34 14 46 2 13 -12 12 -16
-4 -34z m-136 -6 c27 -14 32 -21 28 -42 -6 -29 30 -102 50 -102 7 0 17 -9 23
-20 9 -17 7 -22 -15 -32 -37 -17 -53 -4 -102 83 -45 79 -50 98 -31 117 15 15
9 15 47 -4z m-47 -135 c24 -34 49 -70 56 -80 12 -15 11 -19 -8 -29 -12 -6 -28
-9 -36 -6 -8 3 -14 -1 -14 -8 0 -8 -14 -19 -30 -26 -26 -11 -33 -10 -48 3 -27
24 -76 133 -69 151 8 19 66 56 89 56 10 0 36 -27 60 -61z m-169 -66 c21 -54
37 -106 37 -115 0 -18 -37 -48 -63 -52 -7 -1 -26 -12 -41 -24 -52 -41 -68 -31
-152 97 -46 70 -48 74 -29 87 10 8 23 14 27 14 5 0 32 -36 60 -80 28 -45 55
-77 59 -73 5 5 -8 41 -29 81 -32 62 -35 74 -22 82 29 19 40 10 75 -60 19 -38
40 -70 45 -70 15 0 13 9 -26 100 -33 79 -34 85 -18 97 10 7 23 13 29 13 7 0
28 -44 48 -97z"></path>
<path d="M4500 2383 c0 -19 46 -93 57 -93 19 0 16 16 -9 60 -20 35 -48 54 -48
33z"></path>
<path d="M230 1850 c0 -11 5 -20 10 -20 6 0 10 9 10 20 0 11 -4 20 -10 20 -5
0 -10 -9 -10 -20z"></path>
<path d="M230 1655 c0 -90 4 -145 10 -145 6 0 10 55 10 145 0 90 -4 145 -10
145 -6 0 -10 -55 -10 -145z"></path>
<path d="M6730 1400 c0 -11 5 -20 10 -20 6 0 10 9 10 20 0 11 -4 20 -10 20 -5
0 -10 -9 -10 -20z"></path>
<path d="M240 1385 c0 -14 5 -25 10 -25 6 0 10 11 10 25 0 14 -4 25 -10 25 -5
0 -10 -11 -10 -25z"></path>
<path d="M6720 1320 c0 -11 5 -20 10 -20 6 0 10 9 10 20 0 11 -4 20 -10 20 -5
0 -10 -9 -10 -20z"></path>
<path d="M250 1310 c0 -11 5 -20 10 -20 6 0 10 9 10 20 0 11 -4 20 -10 20 -5
0 -10 -9 -10 -20z"></path>
<path d="M6710 1270 c0 -5 5 -10 10 -10 6 0 10 5 10 10 0 6 -4 10 -10 10 -5 0
-10 -4 -10 -10z"></path>
<path d="M260 1261 c0 -23 52 -184 82 -256 102 -241 277 -450 506 -604 64 -43
160 -89 117 -56 -11 8 -63 43 -115 77 -102 66 -267 222 -337 318 -98 134 -181
308 -219 458 -10 39 -22 72 -26 72 -4 0 -8 -4 -8 -9z"></path>
<path d="M6700 1225 c0 -8 5 -15 10 -15 6 0 10 7 10 15 0 8 -4 15 -10 15 -5 0
-10 -7 -10 -15z"></path>
<path d="M6671 1118 c-34 -105 -92 -223 -163 -330 -105 -157 -311 -348 -460
-424 -56 -28 -72 -48 -27 -32 46 16 195 117 264 179 194 175 328 373 400 595
28 87 28 84 17 84 -4 0 -18 -33 -31 -72z"></path>
<path d="M3780 505 c-20 -24 -6 -28 15 -5 10 11 13 20 8 20 -6 0 -16 -7 -23
-15z"></path>
<path d="M3660 385 c-13 -14 -21 -27 -18 -30 2 -3 17 9 33 25 16 17 24 30 19
30 -6 0 -21 -11 -34 -25z"></path>
<path d="M5915 299 c-22 -10 -64 -26 -92 -36 -29 -9 -53 -21 -53 -26 0 -10 19
-5 122 35 43 16 80 34 83 39 9 14 -16 9 -60 -12z"></path>
<path d="M1044 296 c21 -17 167 -68 174 -61 3 3 3 6 1 8 -6 5 -150 57 -174 63
-19 5 -19 5 -1 -10z"></path>
<path d="M1240 230 c0 -5 5 -10 10 -10 6 0 10 5 10 10 0 6 -4 10 -10 10 -5 0
-10 -4 -10 -10z"></path>
<path d="M5730 230 c0 -5 5 -10 10 -10 6 0 10 5 10 10 0 6 -4 10 -10 10 -5 0
-10 -4 -10 -10z"></path>
<path d="M1280 220 c0 -5 5 -10 10 -10 6 0 10 5 10 10 0 6 -4 10 -10 10 -5 0
-10 -4 -10 -10z"></path>
<path d="M5690 220 c0 -5 5 -10 10 -10 6 0 10 5 10 10 0 6 -4 10 -10 10 -5 0
-10 -4 -10 -10z"></path>
<path d="M1330 210 c0 -5 5 -10 10 -10 6 0 10 5 10 10 0 6 -4 10 -10 10 -5 0
-10 -4 -10 -10z"></path>
<path d="M5640 210 c0 -5 5 -10 10 -10 6 0 10 5 10 10 0 6 -4 10 -10 10 -5 0
-10 -4 -10 -10z"></path>
<path d="M1390 200 c0 -5 5 -10 10 -10 6 0 10 5 10 10 0 6 -4 10 -10 10 -5 0
-10 -4 -10 -10z"></path>
<path d="M5580 200 c0 -5 5 -10 10 -10 6 0 10 5 10 10 0 6 -4 10 -10 10 -5 0
-10 -4 -10 -10z"></path>
</g>
</svg>